<svg width="500" height="400" viewBox="0 0 500 400" fill="none" xmlns="http://www.w3.org/2000/svg">
    <style>
        @keyframes float {
            0% { transform: translateY(0px); }
            50% { transform: translateY(-10px); }
            100% { transform: translateY(0px); }
        }
        @keyframes pulse {
            0% { opacity: 0.6; }
            50% { opacity: 1; }
            100% { opacity: 0.6; }
        }
        @keyframes dash {
            to { stroke-dashoffset: 1000; }
        }
        .float { animation: float 6s ease-in-out infinite; }
        .pulse { animation: pulse 3s ease-in-out infinite; }
        .dash { animation: dash 30s linear infinite; }
    </style>
    
    <!-- Background Elements -->
    <circle cx="250" cy="200" r="150" fill="#F5F8FF" class="pulse"/>
    <circle cx="250" cy="200" r="100" fill="#E9EFFF"/>
    
    <!-- Connection Lines -->
    <path class="dash" d="M180 160 Q 220 120, 250 150 T 320 160" stroke="#6A82FB" stroke-width="2" stroke-dasharray="5,5" fill="none"/>
    <path class="dash" d="M150 200 Q 200 180, 250 200 T 350 180" stroke="#4776E6" stroke-width="2" stroke-dasharray="5,5" fill="none"/>
    <path class="dash" d="M180 240 Q 210 280, 250 250 T 320 240" stroke="#8E54E9" stroke-width="2" stroke-dasharray="5,5" fill="none"/>
    
    <!-- Face Silhouette -->
    <g class="float">
        <circle cx="250" cy="180" r="70" fill="#4776E6" opacity="0.2"/>
        <path d="M220 160 Q 250 200, 280 160" stroke="#4776E6" stroke-width="3" fill="none"/>
        <circle cx="225" cy="140" r="5" fill="#4776E6"/>
        <circle cx="275" cy="140" r="5" fill="#4776E6"/>
    </g>
    
    <!-- Speech Bubble -->
    <g class="float" style="animation-delay: -2s">
        <path d="M350 120 Q 380 120, 380 150 L 380 170 Q 380 200, 350 200 L 330 200 L 320 220 L 320 200 L 300 200 Q 270 200, 270 170 L 270 150 Q 270 120, 300 120 L 350 120 Z" fill="white" stroke="#8E54E9" stroke-width="2"/>
        <circle cx="300" cy="160" r="5" fill="#8E54E9"/>
        <circle cx="325" cy="160" r="5" fill="#8E54E9"/>
        <circle cx="350" cy="160" r="5" fill="#8E54E9"/>
    </g>
    
    <!-- Audio Wave -->
    <g class="float" style="animation-delay: -1s">
        <path d="M130 160 Q 150 140, 150 160 T 170 160 T 190 160" stroke="#4776E6" stroke-width="3" fill="none"/>
        <path d="M130 180 Q 150 160, 150 180 T 170 180 T 190 180" stroke="#6A82FB" stroke-width="3" fill="none"/>
        <path d="M130 200 Q 150 180, 150 200 T 170 200 T 190 200" stroke="#8E54E9" stroke-width="3" fill="none"/>
    </g>
    
    <!-- Text Elements -->
    <g class="float" style="animation-delay: -3s">
        <rect x="100" y="250" width="300" height="20" rx="10" fill="#E9EFFF"/>
        <rect x="130" y="280" width="240" height="15" rx="7.5" fill="#E9EFFF"/>
        <rect x="160" y="305" width="180" height="15" rx="7.5" fill="#E9EFFF"/>
    </g>
    
    <!-- Decoration Elements -->
    <circle cx="400" cy="100" r="20" fill="#8E54E9" opacity="0.2"/>
    <circle cx="420" cy="280" r="30" fill="#4776E6" opacity="0.1"/>
    <circle cx="100" cy="320" r="25" fill="#6A82FB" opacity="0.15"/>
    <circle cx="80" cy="120" r="15" fill="#8E54E9" opacity="0.15"/>
    
    <!-- Connecting Dots -->
    <circle cx="150" cy="200" r="8" fill="#4776E6" class="pulse"/>
    <circle cx="350" cy="180" r="8" fill="#8E54E9" class="pulse" style="animation-delay: -1.5s"/>
    <circle cx="250" cy="250" r="8" fill="#6A82FB" class="pulse" style="animation-delay: -3s"/>
</svg> 